<mxfile host="Electron" modified="2024-08-26T15:01:13.705Z" agent="Mozilla/5.0 (Windows NT 10.0; Win64; x64) AppleWebKit/537.36 (KHTML, like Gecko) draw.io/21.2.1 Chrome/112.0.5615.87 Electron/24.1.2 Safari/537.36" etag="bM2XigAozpyCcs8gKkSI" version="21.2.1" type="device">
  <diagram name="第 1 页" id="q4v41eJhPp2aAEBYIAoa">
    <mxGraphModel dx="766" dy="462" grid="1" gridSize="10" guides="1" tooltips="1" connect="1" arrows="1" fold="1" page="1" pageScale="1" pageWidth="827" pageHeight="1169" math="0" shadow="0">
      <root>
        <mxCell id="0" />
        <mxCell id="1" parent="0" />
        <mxCell id="8tvyvOjqInd1r6sDBBmb-8" value="文件是否完整" style="rhombus;whiteSpace=wrap;html=1;" vertex="1" parent="1">
          <mxGeometry x="425" y="650" width="160" height="60" as="geometry" />
        </mxCell>
        <mxCell id="8tvyvOjqInd1r6sDBBmb-9" value="" style="endArrow=classic;html=1;rounded=0;exitX=0.5;exitY=1;exitDx=0;exitDy=0;entryX=0.5;entryY=0;entryDx=0;entryDy=0;" edge="1" parent="1" source="8tvyvOjqInd1r6sDBBmb-10" target="8tvyvOjqInd1r6sDBBmb-8">
          <mxGeometry width="50" height="50" relative="1" as="geometry">
            <mxPoint x="505" y="630" as="sourcePoint" />
            <mxPoint x="680" y="540" as="targetPoint" />
          </mxGeometry>
        </mxCell>
        <mxCell id="8tvyvOjqInd1r6sDBBmb-10" value="构建处理文件类对象" style="rounded=0;whiteSpace=wrap;html=1;" vertex="1" parent="1">
          <mxGeometry x="445" y="570" width="120" height="50" as="geometry" />
        </mxCell>
        <mxCell id="8tvyvOjqInd1r6sDBBmb-12" value="" style="endArrow=classic;html=1;rounded=0;exitX=0.5;exitY=1;exitDx=0;exitDy=0;" edge="1" parent="1" source="8tvyvOjqInd1r6sDBBmb-8">
          <mxGeometry width="50" height="50" relative="1" as="geometry">
            <mxPoint x="502.26" y="730" as="sourcePoint" />
            <mxPoint x="505" y="740" as="targetPoint" />
          </mxGeometry>
        </mxCell>
        <mxCell id="8tvyvOjqInd1r6sDBBmb-13" value="是" style="text;html=1;align=center;verticalAlign=middle;resizable=0;points=[];autosize=1;strokeColor=none;fillColor=none;" vertex="1" parent="1">
          <mxGeometry x="507.5" y="710" width="40" height="30" as="geometry" />
        </mxCell>
        <mxCell id="8tvyvOjqInd1r6sDBBmb-15" value="否" style="text;html=1;align=center;verticalAlign=middle;resizable=0;points=[];autosize=1;strokeColor=none;fillColor=none;" vertex="1" parent="1">
          <mxGeometry x="585" y="650" width="40" height="30" as="geometry" />
        </mxCell>
        <mxCell id="8tvyvOjqInd1r6sDBBmb-20" value="结束" style="rounded=1;whiteSpace=wrap;html=1;" vertex="1" parent="1">
          <mxGeometry x="625" y="660" width="100" height="40" as="geometry" />
        </mxCell>
        <mxCell id="8tvyvOjqInd1r6sDBBmb-22" value="" style="endArrow=classic;html=1;rounded=0;exitX=1;exitY=0.5;exitDx=0;exitDy=0;" edge="1" parent="1" source="8tvyvOjqInd1r6sDBBmb-8" target="8tvyvOjqInd1r6sDBBmb-20">
          <mxGeometry width="50" height="50" relative="1" as="geometry">
            <mxPoint x="420" y="640" as="sourcePoint" />
            <mxPoint x="470" y="590" as="targetPoint" />
          </mxGeometry>
        </mxCell>
        <mxCell id="8tvyvOjqInd1r6sDBBmb-24" value="用户是否设置了&lt;br style=&quot;border-color: var(--border-color);&quot;&gt;&lt;span style=&quot;border-color: var(--border-color);&quot;&gt;多线程参数&lt;/span&gt;" style="rhombus;whiteSpace=wrap;html=1;" vertex="1" parent="1">
          <mxGeometry x="425" y="740" width="160" height="60" as="geometry" />
        </mxCell>
        <mxCell id="8tvyvOjqInd1r6sDBBmb-25" value="" style="endArrow=classic;html=1;rounded=0;exitX=0.5;exitY=1;exitDx=0;exitDy=0;entryX=0.5;entryY=0;entryDx=0;entryDy=0;" edge="1" parent="1" target="8tvyvOjqInd1r6sDBBmb-24">
          <mxGeometry width="50" height="50" relative="1" as="geometry">
            <mxPoint x="505" y="710" as="sourcePoint" />
            <mxPoint x="680" y="630" as="targetPoint" />
          </mxGeometry>
        </mxCell>
        <mxCell id="8tvyvOjqInd1r6sDBBmb-26" value="多线程处理文件" style="rounded=0;whiteSpace=wrap;html=1;" vertex="1" parent="1">
          <mxGeometry x="445" y="830" width="120" height="40" as="geometry" />
        </mxCell>
        <mxCell id="8tvyvOjqInd1r6sDBBmb-27" value="" style="endArrow=classic;html=1;rounded=0;exitX=0.5;exitY=1;exitDx=0;exitDy=0;" edge="1" parent="1" source="8tvyvOjqInd1r6sDBBmb-24">
          <mxGeometry width="50" height="50" relative="1" as="geometry">
            <mxPoint x="504.76" y="810" as="sourcePoint" />
            <mxPoint x="505" y="830" as="targetPoint" />
          </mxGeometry>
        </mxCell>
        <mxCell id="8tvyvOjqInd1r6sDBBmb-28" value="是" style="text;html=1;align=center;verticalAlign=middle;resizable=0;points=[];autosize=1;strokeColor=none;fillColor=none;" vertex="1" parent="1">
          <mxGeometry x="500" y="800" width="40" height="30" as="geometry" />
        </mxCell>
        <mxCell id="8tvyvOjqInd1r6sDBBmb-29" value="" style="endArrow=classic;html=1;rounded=0;exitX=1;exitY=0.5;exitDx=0;exitDy=0;entryX=0.394;entryY=-0.05;entryDx=0;entryDy=0;entryPerimeter=0;" edge="1" parent="1" source="8tvyvOjqInd1r6sDBBmb-24">
          <mxGeometry width="50" height="50" relative="1" as="geometry">
            <mxPoint x="590" y="750" as="sourcePoint" />
            <mxPoint x="659.1000000000001" y="828" as="targetPoint" />
            <Array as="points">
              <mxPoint x="660" y="770" />
            </Array>
          </mxGeometry>
        </mxCell>
        <mxCell id="8tvyvOjqInd1r6sDBBmb-30" value="否" style="text;html=1;align=center;verticalAlign=middle;resizable=0;points=[];autosize=1;strokeColor=none;fillColor=none;" vertex="1" parent="1">
          <mxGeometry x="660" y="800" width="40" height="30" as="geometry" />
        </mxCell>
        <mxCell id="8tvyvOjqInd1r6sDBBmb-32" value="单线程处理文件" style="rounded=0;whiteSpace=wrap;html=1;" vertex="1" parent="1">
          <mxGeometry x="600" y="830" width="120" height="40" as="geometry" />
        </mxCell>
      </root>
    </mxGraphModel>
  </diagram>
</mxfile>
